<mxfile host="app.diagrams.net" agent="Mozilla/5.0 (X11; Linux x86_64; rv:136.0) Gecko/20100101 Firefox/136.0" border="50" scale="3" compressed="false" locked="false" version="26.1.0">
  <diagram name="Blank" id="YmL12bMKpDGza6XwsDPr">
    <mxGraphModel dx="2348" dy="718" grid="0" gridSize="10" guides="1" tooltips="1" connect="1" arrows="1" fold="1" page="0" pageScale="1" pageWidth="827" pageHeight="1169" background="none" math="1" shadow="0">
      <root>
        <mxCell id="X5NqExCQtvZxIxQ7pmgY-0" />
        <mxCell id="1" parent="X5NqExCQtvZxIxQ7pmgY-0" />
        <mxCell id="jsnIF1tEi3C4ULb17azO-1" value="Ruter" style="image;html=1;image=img/lib/clip_art/networking/Wireless_Router_N_128x128.png" vertex="1" parent="1">
          <mxGeometry x="-452" y="420" width="80" height="80" as="geometry" />
        </mxCell>
        <object label="&lt;div class=&quot;ewa-rteLine&quot;&gt;HP mini&lt;/div&gt;&lt;div class=&quot;ewa-rteLine&quot;&gt;169.254.184.84&lt;/div&gt;" placeholders="1" id="jsnIF1tEi3C4ULb17azO-5">
          <mxCell style="image;html=1;image=img/lib/clip_art/computers/Monitor_Tower_128x128.png;fontFamily=Helvetica;fontSize=12;fontColor=#0A3DA3;align=center;strokeWidth=2;fillColor=#EDF5FF;fontStyle=1;verticalAlign=bottom;strokeColor=none;labelBackgroundColor=#EDF5FF;labelBorderColor=none;labelPosition=center;verticalLabelPosition=top;" vertex="1" parent="1">
            <mxGeometry x="-590" y="302" width="115" height="79" as="geometry" />
          </mxCell>
        </object>
        <object label="&lt;div&gt;Thinkpad T15&lt;/div&gt;&lt;div class=&quot;ewa-rteLine&quot;&gt;169.254.152.96&lt;/div&gt;" placeholders="1" id="jsnIF1tEi3C4ULb17azO-6">
          <mxCell style="image;html=1;image=img/lib/clip_art/computers/Laptop_128x128.png;fontFamily=Helvetica;fontSize=12;fontColor=#0A3DA3;align=center;strokeWidth=2;fillColor=#EDF5FF;fontStyle=1;verticalAlign=bottom;strokeColor=none;labelBackgroundColor=#EDF5FF;labelBorderColor=none;labelPosition=center;verticalLabelPosition=top;" vertex="1" parent="1">
            <mxGeometry x="-376" y="298" width="80" height="80" as="geometry" />
          </mxCell>
        </object>
        <mxCell id="jsnIF1tEi3C4ULb17azO-8" value="&lt;div&gt;Win10 VM&lt;/div&gt;&lt;div&gt;&lt;div class=&quot;ewa-rteLine&quot;&gt;176.18.0.1&lt;/div&gt;&lt;br&gt;&lt;/div&gt;" style="image;html=1;image=img/lib/clip_art/computers/Virtual_Machine_128x128.png" vertex="1" parent="1">
          <mxGeometry x="-828" y="189" width="80" height="80" as="geometry" />
        </mxCell>
        <mxCell id="jsnIF1tEi3C4ULb17azO-9" value="&lt;div&gt;WinSrv22 VM&lt;/div&gt;&lt;div&gt;&lt;div class=&quot;ewa-rteLine&quot;&gt;176.18.0.100&lt;/div&gt;&lt;br&gt;&lt;/div&gt;" style="image;html=1;image=img/lib/clip_art/computers/Virtual_Machine_128x128.png" vertex="1" parent="1">
          <mxGeometry x="-692" y="73" width="80" height="80" as="geometry" />
        </mxCell>
      </root>
    </mxGraphModel>
  </diagram>
</mxfile>
